# xmcd
#
# Track frame offsets:
#	150
#	10055
#	21602
#	34612
#	47342
#	57947
#	69402
#	78447
#	87000
#	103115
#
# Disc length: 1561
#
# Revision: 1
# Processed by: cddbd v1.5.1PL0 Copyright (c) Steve Scherf et al.
# Submitted via: dBpowerAMP V4.0
# Normalized: r0:TDELIM( - )
#
DISCID=7206170a
DTITLE=Classic Country - Back In The Saddle
DYEAR=1900
DGENRE=Country
TTITLE0=Conway Twitty - It's Only Make Believe
TTITLE1=Johnny Paycheck - Take This Job and Shove It
TTITLE2=Kenny Rogers - Ruby Don't Take Your Love To Town
TTITLE3=Freddy Fender - I Can't Stop Lovin' You
TTITLE4=Mickey Gilley - A New Way To Live
TTITLE5=Patsy Cline - I've Loved and Lost Again
TTITLE6=Willie Nelson - Waiting Time
TTITLE7=Waylon Jennings - Abilene
TTITLE8=Lynn Anderson - I Was Country When Country Wasn't Cool
TTITLE9=Frankie Laine - Don't Fence Me In
EXTD=
EXTT0=
EXTT1=
EXTT2=
EXTT3=
EXTT4=
EXTT5=
EXTT6=
EXTT7=
EXTT8=
EXTT9=
PLAYORDER=
